<svg xmlns="http://www.w3.org/2000/svg" xmlns:xlink="http://www.w3.org/1999/xlink" viewBox="0 0 2805.13 2800"><defs><style>.cls-1{fill:none;}.cls-2{fill:url(#linear-gradient);}.cls-3{fill:#91b3fa;}.cls-4{fill:#7d97f4;}.cls-5{fill:url(#linear-gradient-2);}.cls-56,.cls-57,.cls-6{fill:#fff;}.cls-7{clip-path:url(#clip-path);}.cls-8{fill:url(#linear-gradient-3);}.cls-9{fill:url(#linear-gradient-4);}.cls-10{fill:url(#linear-gradient-5);}.cls-11{fill:url(#linear-gradient-6);}.cls-12{fill:url(#linear-gradient-7);}.cls-13{clip-path:url(#clip-path-2);}.cls-14{fill:url(#linear-gradient-8);}.cls-15{fill:url(#linear-gradient-9);}.cls-16{fill:url(#linear-gradient-10);}.cls-17{fill:url(#linear-gradient-11);}.cls-18{fill:url(#linear-gradient-12);}.cls-19{fill:url(#linear-gradient-13);}.cls-20{fill:url(#linear-gradient-14);}.cls-21{fill:url(#linear-gradient-15);}.cls-22{fill:url(#linear-gradient-16);}.cls-23{fill:url(#linear-gradient-17);}.cls-24{fill:url(#linear-gradient-18);}.cls-25{fill:url(#linear-gradient-19);}.cls-26{fill:url(#linear-gradient-20);}.cls-27{fill:url(#linear-gradient-21);}.cls-28{clip-path:url(#clip-path-3);}.cls-29{fill:url(#linear-gradient-22);}.cls-30{fill:url(#linear-gradient-23);}.cls-31{fill:url(#linear-gradient-24);}.cls-32{fill:url(#linear-gradient-25);}.cls-33{fill:url(#linear-gradient-26);}.cls-34{fill:url(#linear-gradient-27);}.cls-35{fill:url(#linear-gradient-28);}.cls-36{fill:url(#linear-gradient-29);}.cls-37{fill:url(#linear-gradient-30);}.cls-38{fill:url(#linear-gradient-31);}.cls-39{fill:url(#linear-gradient-32);}.cls-40{fill:url(#linear-gradient-33);}.cls-41{clip-path:url(#clip-path-4);}.cls-42{fill:url(#linear-gradient-34);}.cls-43{fill:url(#linear-gradient-35);}.cls-44{fill:url(#linear-gradient-36);}.cls-45{fill:url(#linear-gradient-37);}.cls-46{fill:url(#linear-gradient-38);}.cls-47{fill:url(#linear-gradient-39);}.cls-48{fill:url(#linear-gradient-40);}.cls-49{fill:url(#linear-gradient-41);}.cls-50{fill:url(#linear-gradient-42);}.cls-51{fill:url(#linear-gradient-43);}.cls-52{fill:url(#linear-gradient-44);}.cls-53{fill:url(#linear-gradient-45);}.cls-54{fill:url(#linear-gradient-46);}.cls-55{fill:url(#linear-gradient-47);}.cls-56{opacity:0.7;}.cls-57{opacity:0.78;}.cls-58{fill:url(#linear-gradient-48);}.cls-59{fill:url(#linear-gradient-49);}.cls-60{fill:url(#linear-gradient-50);}.cls-61{fill:url(#linear-gradient-51);}.cls-62{fill:url(#linear-gradient-52);}.cls-63{fill:url(#linear-gradient-53);}.cls-64{fill:url(#linear-gradient-54);}.cls-65{fill:url(#linear-gradient-55);}.cls-66{fill:url(#linear-gradient-56);}.cls-67{fill:url(#linear-gradient-57);}.cls-68{fill:url(#linear-gradient-58);}.cls-69{fill:url(#linear-gradient-59);}.cls-70{fill:url(#linear-gradient-60);}.cls-71{fill:url(#linear-gradient-61);}.cls-72{fill:url(#linear-gradient-62);}.cls-73{fill:url(#linear-gradient-63);}.cls-74{fill:url(#linear-gradient-64);}.cls-75{fill:url(#linear-gradient-65);}.cls-76{fill:url(#linear-gradient-66);}.cls-77{fill:url(#linear-gradient-67);}.cls-78{fill:url(#linear-gradient-68);}.cls-79{fill:url(#linear-gradient-69);}.cls-80{fill:url(#linear-gradient-70);}.cls-81{fill:url(#linear-gradient-71);}.cls-82{fill:url(#linear-gradient-72);}.cls-83{fill:url(#linear-gradient-73);}.cls-84{fill:url(#linear-gradient-74);}</style><linearGradient id="linear-gradient" x1="3061.48" y1="3254.58" x2="1083.61" y2="1149.1" gradientUnits="userSpaceOnUse"><stop offset="0" stop-color="#dae3fe"/><stop offset="1" stop-color="#e9effd"/></linearGradient><linearGradient id="linear-gradient-2" x1="521.91" y1="2113.93" x2="6505.12" y2="-3415.11" gradientUnits="userSpaceOnUse"><stop offset="0" stop-color="#4f52ff"/><stop offset="1" stop-color="#4042e2"/></linearGradient><clipPath id="clip-path"><circle class="cls-1" cx="1875.19" cy="485.32" r="199.87" transform="translate(206.06 1468.11) rotate(-45)"/></clipPath><linearGradient id="linear-gradient-3" x1="1870.52" y1="416.06" x2="1882.8" y2="605.96" gradientUnits="userSpaceOnUse"><stop offset="0" stop-color="#c4421b"/><stop offset="1" stop-color="#5c0e16"/></linearGradient><linearGradient id="linear-gradient-4" x1="1871.5" y1="515.27" x2="1887.3" y2="315.46" xlink:href="#linear-gradient-3"/><linearGradient id="linear-gradient-5" x1="1927.39" y1="519.69" x2="1943.19" y2="319.88" xlink:href="#linear-gradient-3"/><linearGradient id="linear-gradient-6" x1="1814.33" y1="510.75" x2="1830.12" y2="310.94" xlink:href="#linear-gradient-3"/><linearGradient id="linear-gradient-7" x1="1872.73" y1="323.42" x2="1898.38" y2="521.82" gradientUnits="userSpaceOnUse"><stop offset="0" stop-color="#090056"/><stop offset="1" stop-color="#020039"/></linearGradient><clipPath id="clip-path-2"><circle class="cls-1" cx="2310.95" cy="374.13" r="183.15"/></clipPath><linearGradient id="linear-gradient-8" x1="2316.8" y1="216.07" x2="2296.78" y2="539.38" gradientUnits="userSpaceOnUse"><stop offset="0" stop-color="#09005d"/><stop offset="1" stop-color="#1a0f91"/></linearGradient><linearGradient id="linear-gradient-9" x1="2246.76" y1="211.73" x2="2226.75" y2="535.04" xlink:href="#linear-gradient-8"/><linearGradient id="linear-gradient-10" x1="2397.44" y1="221.06" x2="2377.43" y2="544.37" xlink:href="#linear-gradient-8"/><linearGradient id="linear-gradient-11" x1="2258.33" y1="79.03" x2="2278.6" y2="211.91" gradientUnits="userSpaceOnUse"><stop offset="0" stop-color="#ff928e"/><stop offset="1" stop-color="#fe7062"/></linearGradient><linearGradient id="linear-gradient-12" x1="2264.89" y1="332.85" x2="2317.54" y2="164.74" gradientUnits="userSpaceOnUse"><stop offset="0" stop-color="#febbba"/><stop offset="1" stop-color="#ff928e"/></linearGradient><linearGradient id="linear-gradient-13" x1="2342.64" y1="357.2" x2="2395.29" y2="189.09" xlink:href="#linear-gradient-12"/><linearGradient id="linear-gradient-14" x1="2352.46" y1="64.67" x2="2372.73" y2="197.55" xlink:href="#linear-gradient-11"/><linearGradient id="linear-gradient-15" x1="2151.81" y1="95.28" x2="2172.08" y2="228.16" xlink:href="#linear-gradient-11"/><linearGradient id="linear-gradient-16" x1="2307.35" y1="507.19" x2="2331.62" y2="344.74" xlink:href="#linear-gradient-12"/><linearGradient id="linear-gradient-17" x1="2295.59" y1="542.31" x2="2307.3" y2="463.95" xlink:href="#linear-gradient-8"/><linearGradient id="linear-gradient-18" x1="2191.73" y1="89.19" x2="2212" y2="222.07" xlink:href="#linear-gradient-11"/><linearGradient id="linear-gradient-19" x1="2309.92" y1="71.16" x2="2330.19" y2="204.04" xlink:href="#linear-gradient-11"/><linearGradient id="linear-gradient-20" x1="2300.52" y1="344.01" x2="2353.17" y2="175.89" xlink:href="#linear-gradient-12"/><linearGradient id="linear-gradient-21" x1="2246.73" y1="207.94" x2="2459.83" y2="547.62" xlink:href="#linear-gradient-8"/><clipPath id="clip-path-3"><circle class="cls-1" cx="1966.22" cy="974.89" r="206.95"/></clipPath><linearGradient id="linear-gradient-22" x1="1991.68" y1="804.15" x2="1902.26" y2="1145.39" gradientTransform="translate(1202.33 -1134.59) rotate(45)" xlink:href="#linear-gradient-8"/><linearGradient id="linear-gradient-23" x1="1970.82" y1="798.69" x2="1881.41" y2="1139.92" xlink:href="#linear-gradient-8"/><linearGradient id="linear-gradient-24" x1="2088.56" y1="829.54" x2="1999.15" y2="1170.77" xlink:href="#linear-gradient-8"/><linearGradient id="linear-gradient-25" x1="-4294.93" y1="1643.09" x2="-4326.56" y2="1870.59" gradientTransform="matrix(-0.97, 0.24, 0.24, 0.97, -2636.12, 318.65)" xlink:href="#linear-gradient-12"/><linearGradient id="linear-gradient-26" x1="1951.17" y1="1037.04" x2="2009.58" y2="712.18" xlink:href="#linear-gradient-12"/><linearGradient id="linear-gradient-27" x1="-3490.65" y1="891.56" x2="-3522.28" y2="1119.06" gradientTransform="matrix(-1, 0, 0, 1, -1541.48, 0)" xlink:href="#linear-gradient-12"/><linearGradient id="linear-gradient-28" x1="1533.58" y1="536.07" x2="1826.44" y2="952.09" gradientTransform="translate(413.4 88.95) rotate(5.22)" xlink:href="#linear-gradient-8"/><linearGradient id="linear-gradient-29" x1="1944.19" y1="762.23" x2="2049.93" y2="946.06" xlink:href="#linear-gradient-8"/><linearGradient id="linear-gradient-30" x1="1971.93" y1="661.57" x2="1971.93" y2="880.03" xlink:href="#linear-gradient-11"/><linearGradient id="linear-gradient-31" x1="2094.71" y1="661.57" x2="2094.71" y2="880.03" xlink:href="#linear-gradient-11"/><linearGradient id="linear-gradient-32" x1="1859.83" y1="661.57" x2="1859.83" y2="880.03" xlink:href="#linear-gradient-11"/><linearGradient id="linear-gradient-33" x1="1868.76" y1="783.68" x2="2161.64" y2="1199.73" xlink:href="#linear-gradient-8"/><clipPath id="clip-path-4"><circle class="cls-1" cx="2442.77" cy="805.12" r="186.17" transform="translate(146.17 1963.11) rotate(-45)"/></clipPath><linearGradient id="linear-gradient-34" x1="2550.23" y1="941.58" x2="2585.43" y2="941.58" xlink:href="#linear-gradient-2"/><linearGradient id="linear-gradient-35" x1="3023.54" y1="-230.26" x2="2830.98" y2="149.77" xlink:href="#linear-gradient-11"/><linearGradient id="linear-gradient-36" x1="2294.82" y1="922.82" x2="2425.81" y2="922.82" xlink:href="#linear-gradient-2"/><linearGradient id="linear-gradient-37" x1="2241.85" y1="937.59" x2="2309.59" y2="937.59" xlink:href="#linear-gradient-2"/><linearGradient id="linear-gradient-38" x1="2438.52" y1="928.25" x2="2561.32" y2="928.25" xlink:href="#linear-gradient-2"/><linearGradient id="linear-gradient-39" x1="2479.46" y1="664.37" x2="2412.78" y2="972.16" xlink:href="#linear-gradient-12"/><linearGradient id="linear-gradient-40" x1="2439.39" y1="763.68" x2="2482.13" y2="559.38" xlink:href="#linear-gradient-12"/><linearGradient id="linear-gradient-41" x1="2488.92" y1="774.05" x2="2531.67" y2="569.74" xlink:href="#linear-gradient-12"/><linearGradient id="linear-gradient-42" x1="2396.64" y1="754.74" x2="2439.38" y2="550.43" xlink:href="#linear-gradient-12"/><linearGradient id="linear-gradient-43" x1="2444.61" y1="666.45" x2="2464.55" y2="820.66" xlink:href="#linear-gradient-7"/><linearGradient id="linear-gradient-44" x1="2388.93" y1="832.17" x2="2377.61" y2="1012.13" xlink:href="#linear-gradient-2"/><linearGradient id="linear-gradient-45" x1="2487.32" y1="841.01" x2="2476.36" y2="1015.28" xlink:href="#linear-gradient-2"/><linearGradient id="linear-gradient-46" x1="1566.47" y1="-968.51" x2="1373.92" y2="-588.47" xlink:href="#linear-gradient-11"/><linearGradient id="linear-gradient-47" x1="1566.47" y1="-968.51" x2="1373.92" y2="-588.47" gradientTransform="translate(844.95 -143.13) rotate(45)" xlink:href="#linear-gradient-11"/><linearGradient id="linear-gradient-48" x1="1552.8" y1="-975.43" x2="1360.25" y2="-595.4" xlink:href="#linear-gradient-11"/><linearGradient id="linear-gradient-49" x1="1585.93" y1="-958.65" x2="1393.38" y2="-578.61" xlink:href="#linear-gradient-11"/><linearGradient id="linear-gradient-50" x1="1680.07" y1="-910.95" x2="1487.52" y2="-530.92" xlink:href="#linear-gradient-11"/><linearGradient id="linear-gradient-51" x1="1680.07" y1="-910.95" x2="1487.52" y2="-530.92" gradientTransform="translate(764.91 -386.09) rotate(45)" xlink:href="#linear-gradient-11"/><linearGradient id="linear-gradient-52" x1="1666.4" y1="-917.88" x2="1473.85" y2="-537.84" xlink:href="#linear-gradient-11"/><linearGradient id="linear-gradient-53" x1="1699.53" y1="-901.09" x2="1506.98" y2="-521.06" xlink:href="#linear-gradient-11"/><linearGradient id="linear-gradient-54" x1="1852.1" y1="-823.69" x2="1659.55" y2="-443.66" xlink:href="#linear-gradient-11"/><linearGradient id="linear-gradient-55" x1="1852.14" y1="-823.77" x2="1659.59" y2="-443.74" xlink:href="#linear-gradient-11"/><linearGradient id="linear-gradient-56" x1="1838.47" y1="-830.7" x2="1645.92" y2="-450.66" xlink:href="#linear-gradient-11"/><linearGradient id="linear-gradient-57" x1="1871.6" y1="-813.91" x2="1679.05" y2="-433.88" xlink:href="#linear-gradient-11"/><linearGradient id="linear-gradient-58" x1="-3270.32" y1="894.11" x2="-3155.29" y2="1182.65" gradientTransform="matrix(-1, 0, 0, 1, -2070.31, 0)" xlink:href="#linear-gradient-8"/><linearGradient id="linear-gradient-59" x1="-3580.97" y1="592.12" x2="-3368.47" y2="1075.62" gradientTransform="matrix(-0.98, -0.21, -0.21, 0.98, -1905.58, -219)" xlink:href="#linear-gradient-12"/><linearGradient id="linear-gradient-60" x1="-2849.82" y1="2741.4" x2="-2752.29" y2="2741.4" gradientTransform="matrix(-1, 0, 0, 1, -2070.31, 0)" xlink:href="#linear-gradient-8"/><linearGradient id="linear-gradient-61" x1="-3261.98" y1="3126.04" x2="-3121.61" y2="1485.52" gradientTransform="matrix(-1, 0, 0, 1, -2070.31, 0)" xlink:href="#linear-gradient-12"/><linearGradient id="linear-gradient-62" x1="-3302.98" y1="2723.59" x2="-3145.16" y2="2723.59" gradientTransform="matrix(-1, 0, 0, 1, -2070.31, 0)" xlink:href="#linear-gradient-8"/><linearGradient id="linear-gradient-63" x1="-2979.62" y1="3150.45" x2="-2839.22" y2="1509.5" gradientTransform="matrix(-1, 0, 0, 1, -2070.31, 0)" xlink:href="#linear-gradient-12"/><linearGradient id="linear-gradient-64" x1="2538.97" y1="-9959.13" x2="2346.42" y2="-9579.09" gradientTransform="matrix(-1, 0, 0, 1, -2070.31, 0)" xlink:href="#linear-gradient-11"/><linearGradient id="linear-gradient-65" x1="-2871.89" y1="1503.64" x2="-3222.82" y2="2065.13" gradientTransform="matrix(-1, 0, 0, 1, -2070.31, 0)" xlink:href="#linear-gradient-2"/><linearGradient id="linear-gradient-66" x1="-3277.37" y1="1508.98" x2="-3251" y2="1316.08" gradientTransform="matrix(-1, 0, 0, 1, -2070.31, 0)" xlink:href="#linear-gradient-12"/><linearGradient id="linear-gradient-67" x1="-3400.74" y1="827.55" x2="-3170.68" y2="418.11" gradientTransform="matrix(-0.98, -0.19, -0.19, 0.98, -1920.98, -195.84)" xlink:href="#linear-gradient-12"/><linearGradient id="linear-gradient-68" x1="-3351.27" y1="471" x2="-3236.23" y2="759.55" gradientTransform="matrix(-0.98, -0.19, -0.19, 0.98, -1920.98, -195.84)" xlink:href="#linear-gradient-8"/><linearGradient id="linear-gradient-69" x1="-3351.77" y1="855.07" x2="-3121.71" y2="445.64" gradientTransform="matrix(-0.98, -0.19, -0.19, 0.98, -1920.98, -195.84)" xlink:href="#linear-gradient-12"/><linearGradient id="linear-gradient-70" x1="-3622.97" y1="610.58" x2="-3410.46" y2="1094.08" gradientTransform="matrix(-0.98, -0.21, -0.21, 0.98, -1905.58, -219)" xlink:href="#linear-gradient-12"/><linearGradient id="linear-gradient-71" x1="1593.09" y1="984.86" x2="1650.31" y2="984.86" xlink:href="#linear-gradient-12"/><linearGradient id="linear-gradient-72" x1="-4484.78" y1="1558.5" x2="-4737.65" y2="1627.8" gradientTransform="matrix(-1, -0.05, -0.05, 1, -3308.08, -77.93)" xlink:href="#linear-gradient-8"/><linearGradient id="linear-gradient-73" x1="-4764.87" y1="1538.88" x2="-4943.24" y2="1727.41" gradientTransform="matrix(-1, 0, 0, 1, -3327.61, 0)" xlink:href="#linear-gradient-8"/><linearGradient id="linear-gradient-74" x1="722.65" y1="1758.47" x2="1274.1" y2="1527.78" xlink:href="#linear-gradient-12"/></defs><g id="Capa_2" data-name="Capa 2"><g id="Illustration"><path class="cls-2" d="M2467.63,2409.87c-73,75.26-138.35,119.5-188.37,152.9-487.83,325.73-1045.48,231.85-1217.89,199.76-278.17-51.77-513-88.3-714.72-270.56C-111.77,2077.8-89.47,1213.82,260.82,678.63c41.53-63.46,391.29-581.91,950.14-655,13.67-1.78,23.87-2.8,32.8-3.75,86.46-9.15,622.19-57.46,1059,308.52,62.53,52.39,163.17,146.89,256.48,291C2900.48,1146.41,2901.57,1962.58,2467.63,2409.87Z"/><path class="cls-3" d="M887.45,1305.4c67.87-131.83,194.1-224.77,340.71-241.37l10-634.74a9.66,9.66,0,0,0-9.74-9.83C814.92,423.94,450,681.32,279.73,1062.55a10.61,10.61,0,0,0,5.94,14.21Z"/><path class="cls-4" d="M1704.6,1609.5a18.94,18.94,0,0,0-18.62,13.28c-7.1,22.7-20.08,66.24-22.21,71.75a582.4,582.4,0,0,1-36.63,77.88c-26.3,46.32-59.94,88.76-101.45,122.37-105.19,85.18-256.4,101-382.53,58.85-3.59-1.2-7.16-2.49-10.71-3.82a14.09,14.09,0,0,0-17.31,6.42l-318,580c154.43,77.44,299.75,97.69,482.08,86,529.73-33.95,945.69-464.06,991.86-997.45Z"/><path class="cls-3" d="M1704.6,1609.5c-34.48,211.66-190.9,377-403.45,384.25-59.8,2-131.15-11.86-183.6-33.1a11.89,11.89,0,0,0-14.7,5.12L776,2528.12a993.3,993.3,0,0,0,511.15,103.66c529.73-34,945.69-477.12,991.86-1010.5Z"/><path class="cls-3" d="M707.82,2439.33l316.51-567.7a9.58,9.58,0,0,0-2.23-12c-97.44-82.06-175.35-192.09-175.35-334.76,0-35.19-15.6-86.41-8.45-119.42L243.06,1192.6A1157.17,1157.17,0,0,0,192.18,1533c0,383.17,203.6,720.17,483.14,913.89A22.54,22.54,0,0,0,707.82,2439.33Z"/><path class="cls-4" d="M676.17,2423.2l328-560.68a17.24,17.24,0,0,0-3.46-21.65c-94.09-82.76-154-207.16-154-347.51a484,484,0,0,1,11-102.51L252,1164.43a8.92,8.92,0,0,0-11.68,5.77,1157.71,1157.71,0,0,0-48.12,331.3C192.18,1894,386.11,2232,676.17,2423.2Z"/><path class="cls-5" d="M1344.2,1067.05c187.75,31.4,333.34,189.49,358,387a21.62,21.62,0,0,0,20.68,19L2631,1503.53l7.14-6.91C2635.32,737,2090.61,86.14,1361,0Z"/><circle class="cls-3" cx="1876.13" cy="483.11" r="219.76" transform="translate(207.9 1468.13) rotate(-45)"/><circle class="cls-6" cx="1874.05" cy="483.75" r="199.87" transform="translate(206.83 1466.84) rotate(-45)"/><g class="cls-7"><path class="cls-4" d="M1765.1,680c3.15-14.62,5.64-24.19,5.64-24.19l-55.56-94.09s-18,18.21-28.76,97.51A18.31,18.31,0,0,0,1704.55,680Z"/><path class="cls-4" d="M2065.59,658.91c-15.43-68.76-42.89-100.77-42.89-100.77l-34.77,115.19s1,2.27,2.66,6.66h58.13A17.29,17.29,0,0,0,2065.59,658.91Z"/><path class="cls-4" d="M1764.68,680c57.11,21,134.72,18.07,225.27,0a296.23,296.23,0,0,1,8.86-29.07l23.89-92.81c-33.49-30-80.57-40-98.68-42.76-42.09-10.44-91.28-1.19-91.28-1.19-66.7,4.66-117.56,47.46-117.56,47.46l41.33,94A190.3,190.3,0,0,1,1764.68,680Z"/><path class="cls-8" d="M1841.28,468.82l-1.42,46.87a10.63,10.63,0,0,0,7.11,10.36c12,4.23,36.8,10.66,60.31,2.24a10.62,10.62,0,0,0,6.87-11.54l-7.05-47.93Z"/><path class="cls-9" d="M1823.92,390.11s2.75,63.33,13.77,88.11S1876.23,503,1879,503s27.53-5.51,41.3-27.54,19.27-93.62,19.27-93.62-24.78-27.53-57.82-30.28S1823.92,376.35,1823.92,390.11Z"/><path class="cls-10" d="M1927.55,413s12.63-19,19-12.63-6.32,47.38-19,47.38S1927.55,413,1927.55,413Z"/><path class="cls-11" d="M1832.78,416.13S1817,394,1810.66,400.34s9.48,47.38,22.12,47.38Z"/><path class="cls-12" d="M1947.37,374.6c.07-4.28-.17-8.71-.39-13.76a103.26,103.26,0,0,1,.79-15.11c1.56-14.48-13.55-25.94-27.23-22.31a5.21,5.21,0,0,1-3.2.24c-1.27-.49-1.83-1.94-2.34-3.2-3.16-7.88-11.57-18.07-19.52-21.4a43.86,43.86,0,0,0-21.79-3.22A44.49,44.49,0,0,0,1839,321.08a4.46,4.46,0,0,1-1.43,2,4.15,4.15,0,0,1-2.21.44c-7.45.1-16-1.54-22.34,3.05-5.34,3.89-9.24,9.94-9.62,16.63-.41,7.31,2.73,14.31,6,20.87,2,4,4,8.53,2.45,12.67a38.9,38.9,0,0,1-1.89,3.62c-6.79,13.46,11,26.71,14.33,38.8q3.75,13.74,7.49,27.5a66,66,0,0,0,.93-17.8c-.68-8.18-2.89-16.25-2.6-24.45a40,40,0,0,1,4.29-17c2.62-5.06,7.37-7.28,10.93-11.71,3.3,3.07,6.88,6.29,11.34,6.94a19,19,0,0,0,8.35-1.11c4.09-1.28,9.9-5.9,13.87-6.21s5.34,3.85,8,6c7.28,6.12,19.68,7.81,28.4,4.16-2,.85,9.8,22.89,10.18,24.89a236.09,236.09,0,0,1,4.06,35.57c.94.69,2-.72,2.31-1.84,2.15-8,2.81-16.22,4.2-24.34,1.57-9.18,5.28-17.82,8.27-26.59A58.42,58.42,0,0,0,1947.37,374.6Z"/></g><circle class="cls-3" cx="2311.81" cy="372.1" r="201.37" transform="translate(414 1743.68) rotate(-45)"/><circle class="cls-6" cx="2309.9" cy="372.7" r="183.15"/><g class="cls-13"><path class="cls-14" d="M2270.63,332.91c-11.6,0-23.62,1.48-28.16-12.49-8.55-26.3,5.81-65.63,29.35-80,7.87-4.79,17-6.88,26.09-8.7,10.63-2.13,19.81-2.66,29.39,2.49,8.84,4.76,17.43-2.89,26.59,3.22,7.79,5.19,13.76,13.36,17.92,21.61,5.44,10.78,8.26,22.67,10.63,34.51.54,2.68,1,5.46.46,8.13a20,20,0,0,1-3,6.15c-9.5,14.72-22.16,25-40.45,25Z"/><path class="cls-15" d="M2268.3,286.61s2.1,4.39-11.56,11.25c-7.61,3.83-22.42,9.49-24.38,26-1,8.53-4.34,29.59-12.45,30.89-20.21,3.24-47.48,15.85-50,40.37-2.92,28.14,5.18,42.92,19.5,46.6,10.53,2.7,13.19,5.53,11.07,16.65-2,10.67,6.05,48.95,23.7,58.7,39.56,21.85,74-77.72,74-77.72l8.09-128.56Z"/><path class="cls-16" d="M2358.83,275.37s-2.13,4.65,11.77,11.92c7.75,4.06,22.83,10,24.82,27.55,1,9,3.43,21.73,11.69,23.11,20.57,3.43,44.41,23.48,49.48,62.39,3.88,29.71-4.58,61.56-19.16,65.46-10.72,2.86-9.91-2.81-7.74,9,2.08,11.3-2.8,6.94-20.77,17.27-40.28,23.16-80.5-54.85-80.5-54.85L2320.18,301Z"/><path class="cls-17" d="M2305,418.11s30.57-7.88,37.07,1.86c3.24,16.2,4.91,32.29,4.91,32.29l-35.22,6.61-23.3-5.36-5.54-3.22-2.3-22.94S2292.52,420.44,2305,418.11Z"/><path class="cls-18" d="M2268.32,336.41s-4.91-14.75-12.29-9.83,11.07,36.28,11.07,36.28Z"/><path class="cls-19" d="M2342.06,336.41s0-22.12,12.29-9.83-12.29,29.49-12.29,29.49Z"/><path class="cls-20" d="M2457.81,537.29c-10.29-49.67-25.06-88.49-29.73-90.73l-27.9,69A181.43,181.43,0,0,0,2395,561.7h42.91A20.31,20.31,0,0,0,2457.81,537.29Z"/><path class="cls-21" d="M2243,561.7c1.29-22.19.72-36.16.72-36.16l-39.32-63.84s-4.92,19.57-9.83,71.18q-.35,3.6-.66,7.32a19.86,19.86,0,0,0,19.8,21.5Z"/><path class="cls-22" d="M2297.46,561.84h42.82l11.61-122.06s-9.83-2.53-14.75-19.73-7.37-51.65-7.37-51.65l-44.24,9.81s4.91,46.84-4.92,69Z"/><path class="cls-23" d="M2363.39,561.84l6.16-77.05c-44.85,26.84-91,25.53-137.76,11.31l13.28,65.74Z"/><path class="cls-24" d="M2308,561.7c-13.3-64.11-27.36-134.27-27.36-134.27l-7.37,14.7-68.82,19.72c3.37,15.73,13.66,59,24,99.85Z"/><path class="cls-25" d="M2406.3,561.7c3.67-19.64,6.9-35,6.9-35l14.88-80.17c-4.68-4.69-78.16-14.76-78.16-14.76l-7.86-11.74s-9.81,71.32-18.2,141.64Z"/><path class="cls-26" d="M2263.41,302s-2.46,59,4.91,68.82,17.21,31.95,34.41,34.41,44.24-46.7,44.24-49.16-2.46-66.36-2.46-66.36S2292.9,247.93,2263.41,302Z"/><path class="cls-27" d="M2253.57,292.17s-9.83,29.49,19.67,19.66l29.49-9.83s29.5-17.21,34.41-9.83S2347,317.7,2347,317.7s9.83-25.53,0-40.28S2275.7,250.38,2253.57,292.17Z"/></g><circle class="cls-3" cx="1967.19" cy="972.59" r="227.54"/><circle class="cls-6" cx="1965.03" cy="973.27" r="206.95"/><g class="cls-28"><circle class="cls-29" cx="1970.74" cy="884.05" r="67.5" transform="translate(-47.9 1652.46) rotate(-45)"/><path class="cls-30" d="M1905.91,865.2c-29.68,102.66-49.87,196-46.59,222.23l86.55-9.13,10-189.9Z"/><path class="cls-31" d="M2001.73,854.6l-11.88,232.12,97.93,52.15c-2.05-79.32-42.58-283.16-59.17-288.62Z"/><polygon class="cls-32" points="2001.75 980.31 2004.6 1043.53 1943.28 1052.76 1939.42 986.39 2001.75 980.31"/><path class="cls-33" d="M2030.83,942.24s-14.7,65.63-54.46,73.51-51.54-54-53.63-58.39c0,0-8.9,4.19-10.89-4.65s-12.49-31.07,7.29-30.62c0,0-3.89-22.08,3-32.91s20.63-36.91,49.05-29.67S2045,890.68,2030.83,942.24Z"/><path class="cls-34" d="M2003.64,1022.39l38.89,20.62-50.93,55.88-94.14-59.22c14.34-5.35,28.44-12.55,41.32-14.69Z"/><path class="cls-35" d="M1921.37,863.38c-13.29,18.58-2.84,35.07-6.41,48.42,12.87-4.68,56.34-11.68,69.42-10.39,2.7-8.89-2.61-23.68-5.33-35.34,4.25,11.07,14,28,12.92,36.76,17.57.81,14,1,33.71,9l-15.37-53.61C1976.08,842.2,1946.51,844.23,1921.37,863.38Z"/><path class="cls-36" d="M1986.81,800.38c0,12.88-12.13,27.35-20.88,27.35-7.19,0-20.87-14.47-20.87-27.35s9.35-23.34,20.87-23.34S1986.81,787.49,1986.81,800.38Z"/><path class="cls-37" d="M2070.43,1182.91l21.41-119.08c-29.12-19.81-56.12-29.24-88.2-41.4-9.94,20.68-55.36,18.63-64.86,2.57-30.2,7.67-59,21.85-86.75,40.22l29.29,117.69Z"/><path class="cls-38" d="M2129.15,1161.85c-17.34-74.14-37.31-98-37.31-98l-32,97.47s3.85,7.78,8.93,21.61h43.68A17.16,17.16,0,0,0,2129.15,1161.85Z"/><path class="cls-39" d="M1883.44,1182.91a283.7,283.7,0,0,1,14.42-39.78L1852,1065.25s-22.61,39.27-30.09,98.41a17.13,17.13,0,0,0,17,19.25Z"/><path class="cls-40" d="M2008.3,859.38c22.71,57.43,34,219.38,20.18,305,21.71-74.77,48.76-169.61,7.43-297.14Z"/></g><circle class="cls-3" cx="2443.65" cy="803.05" r="204.7"/><circle class="cls-6" cx="2441.7" cy="803.66" r="186.17" transform="translate(146.89 1961.93) rotate(-45)"/><g class="cls-41"><path class="cls-42" d="M2566.72,1010.36a18.71,18.71,0,0,0,18.71-18.83c-.2-29.73-.81-55.84-2.19-70.26-3.54-36.8-23.07-48.47-23.07-48.47l-9.94,137.56Z"/><path class="cls-43" d="M2518.68,1010.36c-1.45-77.06-2.87-140.79-2.87-140.79-34.9-21.47-163.74-18.78-163.74-18.78s-9,74.34-19.15,159.57Z"/><path class="cls-44" d="M2305.9,1010.36h119.91C2422,973.11,2391,835.28,2391,835.28l-96.17,29.43s7.59,85.93,7.59,112.77C2302.41,983.63,2304.14,995.56,2305.9,1010.36Z"/><path class="cls-45" d="M2309.51,1010.36c.43-45.42-.38-129.2-14.69-145.55,0,0-18.53,9.54-37.32,71.27-5.42,17.82-10.35,34.74-14.93,50.85a18.39,18.39,0,0,0,17.7,23.43Z"/><path class="cls-46" d="M2556.56,1010.36c3.46-65.32,6.48-134.93,3.61-137.8-5.37-5.37-69.86-26.42-69.86-26.42s-42,128.5-51.79,164.22Z"/><path class="cls-47" d="M2395,858.07l16.1-56.37h59.05l8.06,64.42S2427.23,879.54,2395,858.07Z"/><path class="cls-48" d="M2395,728.48s5.55,53.93,14.91,75,32.75,21.06,35.09,21.06,23.4-4.68,35.09-23.4,16.38-79.54,16.38-79.54-21.06-23.4-49.13-25.74S2395,716.79,2395,728.48Z"/><path class="cls-49" d="M2486.28,748s10.74-16.11,16.1-10.74-5.36,40.27-16.1,40.27S2486.28,748,2486.28,748Z"/><path class="cls-50" d="M2405.75,750.7s-13.42-18.79-18.78-13.42,8.05,40.27,18.78,40.27Z"/><path class="cls-51" d="M2513.83,716.07a50,50,0,0,0,2.65-23.51c-1.38-11.92-7.79-34-16.66-42.89,2.52,2.52-21.54,12.7-25.25,12.33,7.23-5.89,16.23-12.63,16.56-22.91-8.37,5.64-18.59,7.69-28.53,9.44-24.8,4.37-51.45,3.45-70.53,22.22-8,7.84-13.38,19.94-11.33,31.25,1.49,8.26,13.78,17,6.22,24.55-5.35,5.37,10.85,15.14,13.48,30.38a26.71,26.71,0,0,0,.7,3.27c-.23-7.79-3.23-16.16-3-23.74.39-15.54,23.82-16.63,35.28-17.66,15.26-1.37,31.88-1.24,45.08-10.15,5.36-3.62,8.77,25.66,9,27.1,1.33,8.33,2.91,17.27,1.5,25.69h3.7c1.07-9.88.09-19.33,7.35-26.52a74,74,0,0,0,9.79-11.07A38.54,38.54,0,0,0,2513.83,716.07Z"/><path class="cls-52" d="M2408.26,811.73c-2.05,12.34-2.68,18.3-6.6,30.18-3.55,10.72-.94,25.66-.73,36.93.3,15.74,12.53,32.95,9.85,48.42-6.85-19.24-27.75-34.21-38.45-52.18-10.46-17.55-17.92-31.72-6-48.28C2373.77,816.52,2408.42,810.77,2408.26,811.73Z"/><path class="cls-53" d="M2471.47,863.33c1.48,32.77-4.94,39.43-10.15,72.54,7-22.38,22.76-34.13,35.17-54.08,12.23-19.66,16.19-44.17-3.83-57.27-1.37-.9-20.74-9.87-20.65-8.13C2472.26,821.18,2470.83,849.13,2471.47,863.33Z"/></g><circle class="cls-54" cx="595.25" cy="948.38" r="140.37"/><circle class="cls-55" cx="595.25" cy="948.38" r="135.7" transform="translate(-496.26 698.68) rotate(-45)"/><path class="cls-56" d="M470.16,943h-.07a1.28,1.28,0,0,1-1.21-1.35,126.1,126.1,0,0,1,1.84-15.89,1.28,1.28,0,0,1,2.53.45,125,125,0,0,0-1.81,15.57A1.28,1.28,0,0,1,470.16,943Z"/><path class="cls-56" d="M483.36,893.29a1.18,1.18,0,0,1-.58-.14,1.27,1.27,0,0,1-.57-1.72,126,126,0,0,1,113-69.61,128,128,0,0,1,22.83,2.06,1.29,1.29,0,1,1-.46,2.53A124.14,124.14,0,0,0,484.5,892.58,1.27,1.27,0,0,1,483.36,893.29Z"/><circle class="cls-57" cx="598.21" cy="951.33" r="114.85" transform="translate(-497.48 701.64) rotate(-45)"/><path class="cls-58" d="M633.37,907.93c0,19.45-15.76,40.45-35.21,40.45S563,927.38,563,907.93s15.76-33.24,35.21-33.24S633.37,888.49,633.37,907.93Z"/><path class="cls-59" d="M554.46,1023.25h86a20.81,20.81,0,0,0,19.82-14.47l4.63-14.45a20.8,20.8,0,0,0-12.56-25.87c-35-12.79-71.16-11.15-108.21,1.18a20.71,20.71,0,0,0-13.28,25.12l3.56,13.13A20.8,20.8,0,0,0,554.46,1023.25Z"/><circle class="cls-60" cx="848.51" cy="730.29" r="140.37"/><circle class="cls-61" cx="848.51" cy="730.29" r="135.7" transform="translate(-267.87 813.88) rotate(-45)"/><path class="cls-56" d="M723.42,724.92h-.07a1.29,1.29,0,0,1-1.22-1.35A128,128,0,0,1,724,707.68a1.28,1.28,0,0,1,2.53.45,124.89,124.89,0,0,0-1.8,15.58A1.28,1.28,0,0,1,723.42,724.92Z"/><path class="cls-56" d="M736.61,675.2a1.24,1.24,0,0,1-.58-.14,1.28,1.28,0,0,1-.57-1.72,126,126,0,0,1,113-69.6,128,128,0,0,1,22.83,2,1.29,1.29,0,0,1-.46,2.53,124.74,124.74,0,0,0-22.37-2A123.45,123.45,0,0,0,737.76,674.5,1.3,1.3,0,0,1,736.61,675.2Z"/><circle class="cls-57" cx="851.46" cy="733.24" r="114.85" transform="translate(-269.09 816.84) rotate(-45)"/><path class="cls-62" d="M886.63,689.84c0,19.45-15.77,40.45-35.21,40.45s-35.22-21-35.22-40.45S832,656.6,851.42,656.6,886.63,670.4,886.63,689.84Z"/><path class="cls-63" d="M807.72,805.16h86a20.79,20.79,0,0,0,19.81-14.46l4.63-14.46a20.77,20.77,0,0,0-12.56-25.86c-35-12.8-71.15-11.15-108.21,1.18a20.71,20.71,0,0,0-13.28,25.11l3.57,13.13A20.79,20.79,0,0,0,807.72,805.16Z"/><circle class="cls-64" cx="900.28" cy="1054.9" r="140.37"/><circle class="cls-65" cx="900.28" cy="1054.9" r="135.7"/><path class="cls-56" d="M775.19,1049.54h-.07a1.3,1.3,0,0,1-1.22-1.35,127.92,127.92,0,0,1,1.84-15.9,1.29,1.29,0,1,1,2.53.46,124.51,124.51,0,0,0-1.8,15.57A1.28,1.28,0,0,1,775.19,1049.54Z"/><path class="cls-56" d="M788.38,999.82a1.37,1.37,0,0,1-.58-.14,1.29,1.29,0,0,1-.56-1.73,126,126,0,0,1,113-69.6,128,128,0,0,1,22.83,2,1.28,1.28,0,0,1,1,1.5,1.26,1.26,0,0,1-1.49,1,125.67,125.67,0,0,0-22.37-2,123.47,123.47,0,0,0-110.75,68.19A1.29,1.29,0,0,1,788.38,999.82Z"/><circle class="cls-57" cx="903.24" cy="1057.86" r="114.85"/><path class="cls-66" d="M938.4,1014.46c0,19.45-15.76,40.44-35.21,40.44s-35.21-21-35.21-40.44,15.76-33.25,35.21-33.25S938.4,995,938.4,1014.46Z"/><path class="cls-67" d="M859.49,1129.78h86a20.81,20.81,0,0,0,19.82-14.47l4.62-14.46A20.79,20.79,0,0,0,957.34,1075c-35-12.79-71.16-11.15-108.22,1.18a20.71,20.71,0,0,0-13.27,25.12l3.56,13.13A20.82,20.82,0,0,0,859.49,1129.78Z"/><path class="cls-68" d="M1131.8,1049.32s-38.78,18.87-45.91,40.53c-5.72,17.39-48.6,19.63-52.83,53.82-2.19,17.66-15.25,31.8-32.84,34.49-43.79,6.71-111.28,29.45-122.08,105.49-8.24,58,21.35,80,52.4,87.66,22.8,5.6,38,27.78,33.34,50.8-4.42,22.09,2.18,47.62,40.44,67.8,85.73,45.24,171.35-107.17,171.35-107.17l17.55-266.13Z"/><path class="cls-69" d="M1598.31,986.23S1427.13,1257,1223.58,1309.29c0,0,39.66,113,70.27,125.9,0,0,250.43-209,314.79-410.48Z"/><path class="cls-70" d="M779.4,2718l-5.55,45.61a18.83,18.83,0,0,1-16.52,16.48c-14.62,1.67-38.09,3.38-61,1a16.14,16.14,0,0,1-13.55-20.93c5.6-17.61,15.83-44,30.59-59.59h50.6A15.59,15.59,0,0,1,779.4,2718Z"/><path class="cls-71" d="M1175.67,2183.73l8.54,50.24s-28.6,289.66-33.68,405.53a90.82,90.82,0,0,0,13.43,51.6l49.73,80.75-126.38-74.58-2.51-15.42,20.68-28.44-27.09-324.5a99.45,99.45,0,0,1,11.33-55.06l26.14-49.11Z"/><path class="cls-72" d="M1222,2783.54h-40.33a24.27,24.27,0,0,1-19.27-9.44c-12.57-16.34-38.62-48.21-51.08-49-16.76-1.12-14.62,58.48-14.62,58.48h-9.4l-11.9-74.07a43.84,43.84,0,0,1,23-45.83s3.84,28.35,24.62,40.89S1207.6,2762,1207.6,2762a57.49,57.49,0,0,1,16.39.43C1236.72,2764.7,1234.94,2783.54,1222,2783.54Z"/><path class="cls-73" d="M1002.58,2207.59s-167.53,317.79-194.17,390.35-36,133.08-36.31,138.81c-.56,9-11.7,17.55-42.41,17.55-15.84,0-23.6-6.35-27.4-12.5a17.89,17.89,0,0,1-.68-17.34c9.69-19.61,40.44-82.29,51.83-110.71,13.6-33.94,42.85-187.76,58.89-241.23s34.18-111.49,104-164.93C916.37,2207.59,964.33,2160.62,1002.58,2207.59Z"/><path class="cls-74" d="M1108.41,1686.88c43.21-183.12-66.26-286.69-66.26-286.69,69.07-66.31,194.93-96.48,194.93-96.48s120.1,87.8,105.85,156.53c-8.35,40.28-84.41,241.26-84.41,241.26S1188.18,1734.79,1108.41,1686.88Z"/><path class="cls-75" d="M1012.59,1777.54c17.59-53,95.82-90.66,95.82-90.66,79.77,47.91,150.11,14.62,150.11,14.62s15.77,60.3,4.88,116.33S1184.21,2234,1184.21,2234c-107.63,21.8-273.16-21.94-273.16-21.94C979.61,2090.31,995,1830.52,1012.59,1777.54Z"/><path class="cls-76" d="M1158.57,1182.7l-35.13,157.82c-3.37,13.9,9.3,11.62,23.36,9,23-4.34,52.68-13.27,62.6-31.18a17.11,17.11,0,0,0,1.79-6l15.1-109.43a19.67,19.67,0,0,0-11.51-20.67l-29.13-12.91A19.66,19.66,0,0,0,1158.57,1182.7Z"/><path class="cls-77" d="M1225.87,1038.83s37.4,25.32,53.47,89.8-10,87.61-36.82,86.19-65.59-9.69-99.23-56S1176.85,1007.89,1225.87,1038.83Z"/><path class="cls-78" d="M1177.21,1132.86s-13.7-92.4,63-78.26l15.51,16.15s37.55-42.29-4-74.25-99.21-23.78-131.11,34.41-43.48,99.08-16.74,135.24,46.85,5.15,46.85,5.15-12.26-31.3-2.09-44.73,23.31,7.81,23.31,7.81Z"/><path class="cls-79" d="M1166.73,1140.77s-6.77-47.53-31-33.94,8.75,44.4,22,54.89Z"/><path class="cls-80" d="M1597.13,1042c.52,5.59-20.25,9.45-26.86-14.36,1.82-10.34,5-55.61,13-62.64,42.22-37.46,117.49-79.59,117.49-79.59,8.42,12.85-2.62,21.32-2.62,21.32l-37.58,25.36c3.92,13,9.64,24.46,10.29,39.28a44,44,0,0,1-11.11,30.73c-7.47,8.54-17.54,19.57-26.62,27.95C1615.92,1045.87,1597.13,1042,1597.13,1042Z"/><path class="cls-81" d="M1617.54,1023.52l-5.74-2.36c.76-1.86,18.8-45.68,27.52-54.79,3.31-3.46,4.91-6.42,4.76-8.81a6.26,6.26,0,0,0-1.92-3.87L1611.75,970l-13.43,21-5.23-3.35,14.3-22.4,35.61-19,1.61,1.31c3.6,3,5.46,6.11,5.68,9.68.26,4.25-1.86,8.66-6.48,13.49C1637.24,977.53,1622.62,1011.14,1617.54,1023.52Z"/><path class="cls-82" d="M1147.56,1783.49c.24,0,.48,0,.73,0l313.88-.34a13.9,13.9,0,1,0,0-27.8l-313.88.34a13.9,13.9,0,0,0-.7,27.79Z"/><path class="cls-83" d="M1744.34,1501.51h-261.4a49.87,49.87,0,0,0-45.07,28.27L1317,1783.32h324.85a30.26,30.26,0,0,0,28.16-19l93.72-234.61A20.69,20.69,0,0,0,1744.34,1501.51Z"/><ellipse class="cls-3" cx="1579.78" cy="1637.75" rx="33.16" ry="20.57" transform="translate(-470.19 2625.46) rotate(-71.76)"/><path class="cls-84" d="M1041.7,1400.57c-42.83,43.21-97.17,234.78-70.21,266.77,23.74,37.25,104.56,88,181.52,88h113.56c-47.72-50.7-80.57-63.56-119.7-28.1-31-13.27-71.31-64.66-98.18-87.61a28.64,28.64,0,0,1-6-36.32c21.34-36.14,48.11-73.29,56.63-109.28C1101.17,1451.88,1070,1403.61,1041.7,1400.57Z"/><path class="cls-4" d="M1606.44,2796.53a11.25,11.25,0,0,1-7.87-3.88c-29.11-33.64-242.3-298-5.64-572.1,224.67-260.2,331-318.16,335-461.41.46-16.73,22.6-22.4,31.11-8,63.6,107.7,169.2,362.23-102.45,554.93-299.65,212.56-258.36,417.78-238.75,475.5a11.3,11.3,0,0,1-11.38,15Z"/><path class="cls-4" d="M1645.76,2798.9a16.27,16.27,0,0,1-14.92-12.55c-11.14-47.92-43.16-227.71,86.7-285.79,143-63.93,271.86,64,371.81-51.24a8.22,8.22,0,0,1,14.43,6.12c-5.42,56.67-38.49,189.48-227,229.88-201.81,43.24-223,68.36-216.69,97.06a13.72,13.72,0,0,1-14.3,16.52Z"/><path class="cls-3" d="M1931.7,1904.61a208.51,208.51,0,0,1-7.48,31,306.68,306.68,0,0,1-11.06,29.73,377.33,377.33,0,0,1-29.87,56c-23,35.7-51.63,67.7-83.77,95.42a580.48,580.48,0,0,1-50.46,38.38,483.66,483.66,0,0,0-47.83,37.52,532.6,532.6,0,0,0-80.88,90.8c-46.68,66.36-77.48,144.53-83.45,225.73a426,426,0,0,0,8.45,121.52c8.5,40,23,78.77,41.08,115.81a4,4,0,0,1-7,3.73A476.86,476.86,0,0,1,1532,2633.9,415,415,0,0,1,1519,2508.12c2-42.4,10.71-84.45,24.87-124.48s34.09-78,58-113a531.21,531.21,0,0,1,83.89-95.33,505.61,505.61,0,0,1,50-39.5,583.5,583.5,0,0,0,49-36.52c31.14-26,59.52-55.41,83.35-88.35a427.27,427.27,0,0,0,32.53-51.63c9.45-18,18.13-36.84,24-56.1l.07-.25a3.64,3.64,0,0,1,7.08,1.62Z"/><path class="cls-3" d="M1634.82,2766.66a12.64,12.64,0,0,0,0-5.09l-.53-5-.86-10q-.74-10-1.06-20c-.41-13.34-.27-26.72.51-40.07,1.65-26.67,5.65-53.44,14.44-79,8.69-25.41,22.88-50.14,44.88-67.26a109.8,109.8,0,0,1,36.86-18.5,139.53,139.53,0,0,1,40.71-5.15c53.54,2.17,106.34,8.43,159.12,12.77,26.27,1.92,52.88,3.4,78.13-2a116.07,116.07,0,0,0,18.33-5.66,99,99,0,0,0,16.83-9.09c10.62-7.17,19.72-16.56,27.71-26.82l0,0a3.24,3.24,0,0,1,5.16,3.93c-8.07,10.83-17.45,21-28.72,29a106.56,106.56,0,0,1-17.95,10.19,124,124,0,0,1-19.56,6.51c-26.87,6-54.06,4.67-80.61,3s-53-4.7-79.46-7-53-4.4-79.16-5.49a130.65,130.65,0,0,0-38.1,4.45,101.12,101.12,0,0,0-34.08,16.73c-20.51,15.34-34.51,38.35-43.35,62.79s-13.4,50.76-15.5,77c-1,13.15-1.39,26.36-1.23,39.57q.14,9.91.68,19.81l.68,9.88.43,4.93a10.83,10.83,0,0,0,1.14,4.81,3,3,0,1,1-5.47.8Z"/></g></g></svg>